<svg width="329" height="61" viewBox="0 0 329 61" fill="none" xmlns="http://www.w3.org/2000/svg">
<path d="M0.9325 3.328H16.4845C20.7085 3.328 23.9512 4.39467 26.2125 6.528C28.5165 8.61867 29.6685 11.4773 29.6685 15.104C29.6685 17.664 29.0285 19.712 27.7485 21.248C26.5112 22.784 24.7405 23.8933 22.4365 24.576V24.896C25.1245 25.536 27.2365 26.7093 28.7725 28.416C30.3512 30.08 31.1405 32.448 31.1405 35.52C31.1405 37.3973 30.8205 39.104 30.1805 40.64C29.5832 42.1333 28.7085 43.4347 27.5565 44.544C26.4472 45.6533 25.0818 46.5067 23.4605 47.104C21.8818 47.7013 20.0898 48 18.0845 48H0.9325V3.328ZM15.5245 41.92C17.8712 41.92 19.6205 41.4933 20.7725 40.64C21.9672 39.744 22.5645 38.2293 22.5645 36.096V33.984C22.5645 31.8933 21.9672 30.4213 20.7725 29.568C19.6205 28.672 17.8712 28.224 15.5245 28.224H9.1245V41.92H15.5245ZM14.4365 22.4C16.6978 22.4 18.3618 21.9947 19.4285 21.184C20.5378 20.3733 21.0925 18.9653 21.0925 16.96V14.848C21.0925 12.8427 20.5378 11.4347 19.4285 10.624C18.3618 9.81333 16.6978 9.408 14.4365 9.408H9.1245V22.4H14.4365ZM38.7955 41.536H49.2915V7.104H38.7955V0.639999H57.4835V41.536H68.0435V48H38.7955V41.536ZM91.7625 48.768C89.2452 48.768 86.9838 48.3627 84.9785 47.552C83.0158 46.7413 81.3305 45.5893 79.9225 44.096C78.5572 42.6027 77.4905 40.7893 76.7225 38.656C75.9972 36.5227 75.6345 34.1333 75.6345 31.488C75.6345 28.8427 75.9972 26.4533 76.7225 24.32C77.4905 22.1867 78.5572 20.3733 79.9225 18.88C81.3305 17.3867 83.0158 16.2347 84.9785 15.424C86.9838 14.6133 89.2452 14.208 91.7625 14.208C94.2372 14.208 96.4772 14.6133 98.4825 15.424C100.488 16.2347 102.173 17.3867 103.539 18.88C104.947 20.3733 106.013 22.1867 106.739 24.32C107.507 26.4533 107.891 28.8427 107.891 31.488C107.891 34.1333 107.507 36.5227 106.739 38.656C106.013 40.7893 104.947 42.6027 103.539 44.096C102.173 45.5893 100.488 46.7413 98.4825 47.552C96.4772 48.3627 94.2372 48.768 91.7625 48.768ZM91.7625 42.496C94.1092 42.496 95.9652 41.792 97.3305 40.384C98.6958 38.9333 99.3785 36.8213 99.3785 34.048V28.928C99.3785 26.1547 98.6958 24.064 97.3305 22.656C95.9652 21.2053 94.1092 20.48 91.7625 20.48C89.4158 20.48 87.5598 21.2053 86.1945 22.656C84.8292 24.064 84.1465 26.1547 84.1465 28.928V34.048C84.1465 36.8213 84.8292 38.9333 86.1945 40.384C87.5598 41.792 89.4158 42.496 91.7625 42.496ZM130.138 48.768C127.62 48.768 125.359 48.3627 123.354 47.552C121.391 46.7413 119.706 45.5893 118.298 44.096C116.932 42.6027 115.866 40.7893 115.098 38.656C114.372 36.5227 114.01 34.1333 114.01 31.488C114.01 28.8427 114.372 26.4533 115.098 24.32C115.866 22.1867 116.932 20.3733 118.298 18.88C119.706 17.3867 121.391 16.2347 123.354 15.424C125.359 14.6133 127.62 14.208 130.138 14.208C132.612 14.208 134.852 14.6133 136.858 15.424C138.863 16.2347 140.548 17.3867 141.914 18.88C143.322 20.3733 144.388 22.1867 145.114 24.32C145.882 26.4533 146.266 28.8427 146.266 31.488C146.266 34.1333 145.882 36.5227 145.114 38.656C144.388 40.7893 143.322 42.6027 141.914 44.096C140.548 45.5893 138.863 46.7413 136.858 47.552C134.852 48.3627 132.612 48.768 130.138 48.768ZM130.138 42.496C132.484 42.496 134.34 41.792 135.706 40.384C137.071 38.9333 137.754 36.8213 137.754 34.048V28.928C137.754 26.1547 137.071 24.064 135.706 22.656C134.34 21.2053 132.484 20.48 130.138 20.48C127.791 20.48 125.935 21.2053 124.57 22.656C123.204 24.064 122.522 26.1547 122.522 28.928V34.048C122.522 36.8213 123.204 38.9333 124.57 40.384C125.935 41.792 127.791 42.496 130.138 42.496ZM151.681 48V14.976H158.465V19.52H158.849C159.361 18.0693 160.086 16.832 161.025 15.808C162.006 14.7413 163.371 14.208 165.121 14.208C166.785 14.208 168.107 14.6987 169.089 15.68C170.07 16.6187 170.71 17.9627 171.009 19.712H171.329C171.883 18.2187 172.694 16.9387 173.761 15.872C174.87 14.7627 176.427 14.208 178.433 14.208C180.865 14.208 182.614 15.0827 183.681 16.832C184.747 18.5813 185.281 21.1627 185.281 24.576V48H178.561V25.536C178.561 23.616 178.283 22.272 177.729 21.504C177.217 20.736 176.427 20.352 175.361 20.352C174.379 20.352 173.547 20.672 172.865 21.312C172.225 21.952 171.905 22.9333 171.905 24.256V48H165.121V25.536C165.121 23.616 164.865 22.272 164.353 21.504C163.841 20.736 163.051 20.352 161.985 20.352C160.961 20.352 160.107 20.672 159.425 21.312C158.785 21.952 158.465 22.9333 158.465 24.256V48H151.681ZM208.936 9.856C207.016 9.856 205.65 9.45067 204.84 8.64C204.072 7.82933 203.688 6.848 203.688 5.696V4.16C203.688 3.008 204.072 2.02667 204.84 1.216C205.65 0.405331 207.016 -3.8147e-06 208.936 -3.8147e-06C210.856 -3.8147e-06 212.2 0.405331 212.968 1.216C213.778 2.02667 214.184 3.008 214.184 4.16V5.696C214.184 6.848 213.778 7.82933 212.968 8.64C212.2 9.45067 210.856 9.856 208.936 9.856ZM193.96 41.536H204.84V21.44H193.96V14.976H213.032V41.536H223.144V48H193.96V41.536ZM230.863 41.536H240.975V21.44H230.223V14.976H240.975V9.6C240.975 8.27733 241.145 7.08266 241.487 6.016C241.871 4.90666 242.447 3.968 243.215 3.2C243.983 2.38933 244.943 1.77066 246.095 1.344C247.289 0.874666 248.676 0.639999 250.255 0.639999H261.391V7.104H249.167V14.976H261.391V21.44H249.167V41.536H259.919V48H230.863V41.536ZM292.662 14.976H300.982L285.174 53.888C284.278 56.1493 283.083 57.856 281.59 59.008C280.096 60.2027 277.984 60.8 275.254 60.8H269.238V54.336H277.11L279.606 47.68L266.294 14.976H274.998L280.054 28.8L283.574 39.296H284.022L287.542 28.8L292.662 14.976ZM322.013 48.704C319.794 48.704 318.215 48.2347 317.277 47.296C316.338 46.3573 315.869 45.2053 315.869 43.84V41.92C315.869 40.5547 316.338 39.4027 317.277 38.464C318.215 37.5253 319.794 37.056 322.013 37.056C324.231 37.056 325.81 37.5253 326.749 38.464C327.687 39.4027 328.157 40.5547 328.157 41.92V43.84C328.157 45.2053 327.687 46.3573 326.749 47.296C325.81 48.2347 324.231 48.704 322.013 48.704Z" fill="black"/>
</svg>
